<?xml version="1.0" standalone="no"?>
<!DOCTYPE svg PUBLIC "-//W3C//DTD SVG 20010904//EN"
 "http://www.w3.org/TR/2001/REC-SVG-20010904/DTD/svg10.dtd">
<svg version="1.0" xmlns="http://www.w3.org/2000/svg"
 width="700.000000pt" height="700.000000pt" viewBox="0 0 700.000000 700.000000"
 preserveAspectRatio="xMidYMid meet">
<metadata>
Created by potrace 1.14, written by Peter Selinger 2001-2017
</metadata>
<g transform="translate(0.000000,700.000000) scale(0.100000,-0.100000)"
fill="#000000" stroke="none">
<path d="M3207 6990 c-1339 -120 -2481 -974 -2971 -2222 -236 -603 -298 -1301
-170 -1948 241 -1226 1133 -2240 2319 -2638 387 -130 690 -177 1125 -176 303
0 439 13 690 64 1215 245 2228 1142 2619 2318 115 344 167 640 178 1017 23
762 -200 1496 -644 2122 -406 572 -989 1018 -1649 1261 -233 86 -516 154 -774
187 -147 19 -578 28 -723 15z m348 -2849 l1220 -1189 3 1189 2 1189 95 0 95 0
0 -1750 0 -1750 -1420 0 -1420 0 0 1750 0 1750 103 0 102 -1 1220 -1188z"/>
</g>
</svg>
